<?xml version="1.0" encoding="iso-8859-1"?>
<!-- Uploaded to: SVG Repo, www.svgrepo.com, Generator: SVG Repo Mixer Tools -->
<svg fill="#000000" height="800px" width="800px" version="1.1" id="Layer_1" xmlns="http://www.w3.org/2000/svg" xmlns:xlink="http://www.w3.org/1999/xlink" 
	 viewBox="0 0 512 512" xml:space="preserve">
<g>
	<g>
		<path d="M500.241,40.147c0-4.41-1.752-8.64-4.872-11.759L471.853,4.869c-6.49-6.491-17.026-6.493-23.518,0
			c-7.509,7.509-414.51,414.51-421.987,421.987c-19.453,19.452-19.453,51.103,0,70.556c19.451,19.451,51.103,19.452,70.556,0
			l69.883-69.883c25.996,25.997,68.075,25.999,94.074,0c25.936-25.936,25.936-68.137,0-94.074
			c-17.473-17.473-42.044-23.143-64.263-17.227l-6.293-6.293l47.037-47.038l11.759,11.76c6.493,6.495,17.023,6.495,23.518,0
			c6.495-6.495,6.495-17.024,0-23.518l-11.759-11.76l47.038-47.037l11.759,11.76c6.493,6.495,17.022,6.495,23.518,0
			c6.495-6.495,6.495-17.024,0-23.518l-11.759-11.76l47.038-47.038l11.759,11.76c6.493,6.495,17.022,6.495,23.518,0
			c6.495-6.495,6.495-17.024,0-23.518L401.97,98.27l58.124-58.124l6.888,6.888v411.465c0,10.282-8.366,18.648-18.648,18.648
			c-10.282,0-18.647-8.365-18.647-18.648v-11.76c0-9.184-7.446-16.63-16.63-16.63c-9.184,0-16.63,7.446-16.63,16.63v11.76
			c0,28.621,23.286,51.908,51.908,51.908s51.907-23.285,51.907-51.908V40.147H500.241z M149.596,397.682l-76.211,76.211
			c-6.485,6.486-17.035,6.485-23.519,0s-6.485-17.035,0-23.519l116.92-116.919C149.414,350.826,143.697,375.491,149.596,397.682z
			 M237.34,356.973c12.967,12.968,12.967,34.068,0,47.037c-12.998,12.998-34.038,12.999-47.037,0
			c-12.967-12.968-12.967-34.068,0-47.037C203.302,343.975,224.341,343.973,237.34,356.973z"/>
	</g>
</g>
</svg>